<svg class="drawing-area" xmlns="http://www.w3.org/2000/svg" viewBox="0 0 403 403">
  <rect fill="#555" width="100" height="100" x="0" y="0" class="pixel-blue"></rect>
  <rect fill="#555" width="100" height="100" x="101" y="0" class="pixel-blue"></rect>
  <rect width="100" height="100" x="202" y="0" class="pixel-blue"></rect>
  <rect width="100" height="100" x="303" y="0" class="pixel-blue"></rect>
  <rect fill="#555" width="100" height="100" x="0" y="101" class="pixel-blue"></rect>
  <rect width="100" height="100" x="101" y="101" class="pixel-blue"></rect>
  <rect width="100" height="100" x="202" y="101" class="pixel-blue"></rect>
  <rect width="100" height="100" x="303" y="101" class="pixel-blue"></rect>
  <rect width="100" height="100" x="0" y="202" class="pixel-blue"></rect>
  <rect width="100" height="100" x="101" y="202" class="pixel-blue"></rect>
  <rect width="100" height="100" x="202" y="202" class="pixel-blue"></rect>
  <rect width="100" height="100" x="303" y="202" class="pixel-blue"></rect>
  <rect width="100" height="100" x="0" y="303" class="pixel-blue"></rect>
  <rect width="100" height="100" x="101" y="303" class="pixel-blue"></rect>
  <rect width="100" height="100" x="202" y="303" class="pixel-blue"></rect>
  <rect width="100" height="100" x="303" y="303" class="pixel-blue"></rect>
</svg>
